PathFileType	4	(X/Y/Z)	path1_02_0-549.trc
DataRate	CameraRate	NumFrames	NumMarkers	Units	OrigDataRate	OrigDataStartFrame	OrigNumFrames
30	30	6	22	m	30	68	549
Frame#	Time	Hip			RHip			RKnee			RAnkle			RBigToe			RSmallToe			RHeel			LHip			LKnee			LAnkle			LBigToe			LSmallToe			LHeel			Neck			Head			Nose			RShoulder			RElbow			RWrist			LShoulder			LElbow			LWrist		
		X1	Y1	Z1	X2	Y2	Z2	X3	Y3	Z3	X4	Y4	Z4	X5	Y5	Z5	X6	Y6	Z6	X7	Y7	Z7	X8	Y8	Z8	X9	Y9	Z9	X10	Y10	Z10	X11	Y11	Z11	X12	Y12	Z12	X13	Y13	Z13	X14	Y14	Z14	X15	Y15	Z15	X16	Y16	Z16	X17	Y17	Z17	X18	Y18	Z18	X19	Y19	Z19	X20	Y20	Z20	X21	Y21	Z21	X22	Y22	Z22
69	2.3	2.6054460097473013	0.8357318375490528	0.21826946956167226	2.6029017746605216	0.800679152846597	0.13594983014096929	2.614793048209052	0.4525484776567734	0.15705426938175054	2.645028997217865	0.10416135687138679	0.14808495120120532	2.4748315057685892	0.026649381652296474	0.13856503299598294	2.507114736336735	0.023536902931572942	0.07273120254914554	2.6910511848015655	0.03677739692586226	0.1540735725293526	2.6031541456559686	0.7971176217024836	0.29202227397879654	2.617800395052228	0.44149641815141405	0.27220953441950324	2.661303533091937	0.10146575719938568	0.2963750899500348	2.478003358098072	0.02007006516877748	0.2972474013971676	2.512437510650671	0.0282331932048322	0.34082406442429947	2.7076448175925782	0.03042225019079923	0.278189735507801	2.572206447034131	1.4682911292883398	0.23861665847332356	2.5441770977643396	1.7072485897736707	0.2372387167741515	2.4347879820494405	1.606756179234706	0.23788315692734102	2.6124280053573856	1.3627984762059213	0.06564690988182359	2.576261357513671	1.070818239566214	0.003977137883603484	2.4969228429339827	0.8448402405779957	0.02816149486926133	2.605316353795597	1.3433582090779521	0.3641054895394945	2.573911822830559	1.0675838731114948	0.42623975477934584	2.5015570692294355	0.8438499971803436	0.4089389778563573
70	2.333333333333333	2.6053782820899483	0.8357018932038232	0.2183053878568139	2.6030448062937777	0.8006574137875094	0.1361515956956568	2.615145039258847	0.4525277207958048	0.15710147175057174	2.646871648468641	0.10374635854831656	0.149070260686354	2.475347253507671	0.02645875526244842	0.13879820320540753	2.507469241125569	0.023457193700479682	0.0726183140353297	2.6919812344090195	0.03645864177570908	0.1541510108639419	2.603085696634659	0.7971881347280921	0.29170459358328354	2.617344399961695	0.4413861531628446	0.27278886162545496	2.6615367133961407	0.10144074221675586	0.2970939682444825	2.4775490535524303	0.020147559796449752	0.2974657576372538	2.512439590464357	0.028771562575021906	0.34080862072289875	2.7088939017290437	0.030521882394710445	0.27995071668624827	2.5718245657434586	1.4681367925077444	0.23867980732480806	2.544002246438223	1.7067744519883865	0.2369207238960054	2.4342648473469626	1.6063056423369177	0.23676768608408247	2.61236646579988	1.3628602499072082	0.06567327401382199	2.576203791742677	1.0709817717530705	0.0037982494363119276	2.496897700343526	0.8448694087537106	0.028184774826122142	2.604830748292504	1.343207478429305	0.36434497537699784	2.573706419394144	1.0672358826520372	0.426205629345934	2.5013544066187006	0.843644896210993	0.4087329871510037
71	2.3666666666666667	2.605106801502108	0.8356132336147597	0.21825807102897796	2.6030854254084423	0.8004549092131542	0.13633636134265054	2.615411450166173	0.4524498881253866	0.15722069918701764	2.6493937457192294	0.10315859964225929	0.15053595400074088	2.475900232179338	0.026022899927674977	0.13903693941524647	2.507814358381386	0.023317429314876875	0.07258095501571997	2.693334621852525	0.036037374802334654	0.1540244673511567	2.6029306827904466	0.7971349462523569	0.29130361442839864	2.6164969542256373	0.4413752957265407	0.2737398093160762	2.6617096620450607	0.1012202173640854	0.29710949034906153	2.476644184999552	0.020326651507828624	0.2977904271402032	2.512622103339737	0.028304268215884693	0.3409300537625388	2.7099349316848236	0.030674626272484417	0.28161644624445825	2.5713135592040772	1.4680880369226204	0.23889007369898171	2.5442514686872966	1.706114624141148	0.23707904751058978	2.433785864692508	1.6057559224952735	0.2352432572268991	2.612362959763389	1.3627753085480314	0.065837664940501	2.576010968393787	1.0710520734934532	0.0038152701013102253	2.496812600366243	0.8449355895758937	0.028150348553273325	2.6044199166391744	1.3430014799094458	0.36454046771472964	2.5734946819514453	1.0669013644582483	0.4261229823977855	2.5010879584663837	0.8435075101911537	0.4085040268267313
72	2.4	2.6045142658924565	0.8354883858349441	0.21807987251103897	2.602867941504031	0.800061711814618	0.13651495651618425	2.6155131502676565	0.4522860245516853	0.15739582574219455	2.6520245459370746	0.10249453488638548	0.1521623594756165	2.476553035972736	0.025406876393139172	0.13933162838982224	2.5081355295369168	0.02311242731274644	0.07265443223363467	2.6950348487951583	0.03545637165909003	0.1536028884528536	2.6026671071762735	0.7969013572920429	0.2908333647494707	2.6154631209624766	0.4415135404892014	0.2748674962688121	2.6618356829586562	0.10089790466143576	0.2966536040190975	2.475475726156068	0.020678117858365666	0.29811865392909315	2.512948648350154	0.02670696783043736	0.341182131975615	2.7107572256624413	0.030998353495042406	0.28319108897754164	2.570710869224624	1.4681516875787042	0.23920810474494092	2.544972256879948	1.7052298446581031	0.2381732478389763	2.4333783667290385	1.6051772513287397	0.23354575934417657	2.6123464502360734	1.3625546263432302	0.06616984686802165	2.5756624769283096	1.0710173031024568	0.003991555015329394	2.4966505699800408	0.8450156334399228	0.028059954884431935	2.604167798252782	1.3427388995867566	0.3646464846356527	2.573303570273628	1.0666608404615294	0.4260052711704503	2.500800938546118	0.8434461265829213	0.40828263694973976
73	2.433333333333333	2.6036736211985008	0.8353995469771702	0.21781165859738782	2.6024168697596557	0.7995336034170744	0.13671834411940756	2.6155082359605952	0.4520670966947814	0.1577226998460656	2.6542364185149334	0.1018122664144081	0.1536353813353997	2.477249565308399	0.024670403282983863	0.13973234169517862	2.5084067887151087	0.02281417257947443	0.07277501890327999	2.6968795350246797	0.03462957115589542	0.15284238549992268	2.6022395726871568	0.796578880229529	0.29039155301945363	2.6144535997300284	0.4417470672916406	0.27578229333564536	2.661855200659414	0.10057822905585892	0.29596284936088074	2.474486488597301	0.02118910456362084	0.29828518393636855	2.5132655760593123	0.023965011708420414	0.3416385538556239	2.711256873422618	0.03148389197520891	0.2844824138643023	2.570104995320422	1.4682912684954657	0.2395522794425837	2.54603772127156	1.7041813398142127	0.24030490482744407	2.4331046423395577	1.6046220112459604	0.23205890062609694	2.6122582893799806	1.3622518099994227	0.06661096043705098	2.575146876113508	1.0708811942423269	0.004243134410236715	2.496378661192796	0.8450540358551597	0.027933055452640323	2.6040119951067227	1.342436523436472	0.36465009284246114	2.57313714767849	1.0665715579650454	0.4258620388375087	2.5005082525946865	0.8434887412244612	0.40810049595934533
74	2.466666666666667	2.6028279499890075	0.8354094876137008	0.21751926935055016	2.601906074641203	0.7990037426368337	0.1369440425760675	2.6155391752325357	0.4518665111963516	0.1582913700463825	2.655823288029875	0.10110927779601002	0.1547820402772052	2.4778040130447336	0.02388937289016169	0.14024312939951014	2.5085327724034068	0.02244323651900167	0.07281860006780047	2.6986435221338336	0.033505217551372306	0.15179717098768009	2.601645358547516	0.7963523464647844	0.2901005142444821	2.613785699738781	0.44183933079875065	0.27591359541905797	2.6616696781705933	0.10034418931115228	0.2952565949140376	2.4739039653448924	0.021770566445152458	0.2982536811903244	2.5134200728638705	0.0203461337655466	0.34235422703825164	2.7111947401249585	0.03198741084086683	0.28516050095445056	2.5695945519651184	1.468425990924018	0.2398320925232087	2.547178621234902	1.7031632202728904	0.24289748109055723	2.4329908919391112	1.6041521346081287	0.2310578233888561	2.6120763577515014	1.361949085896484	0.06698387230185342	2.574521346491598	1.0706655485139958	0.004468889060176722	2.4959811037447266	0.8450224592591029	0.027784664156254177	2.603853063132549	1.342131472484179	0.3645362211660022	2.5729769438755614	1.0666330796301255	0.4257076899988791	2.5002199559577787	0.8436697217224863	0.4079843340678634
